<svg xmlns="http://www.w3.org/2000/svg" version="1.1" xmlns:xlink="http://www.w3.org/1999/xlink" xmlns:svgjs="http://svgjs.com/svgjs" width="1440" height="560" preserveAspectRatio="none" viewBox="0 0 1440 560"><g mask="url(&quot;#SvgjsMask1003&quot;)" fill="none"><rect width="1440" height="560" x="0" y="0" fill="rgba(1, 11, 18, 1)"></rect><path d="M779 409L926 262" stroke-width="6" stroke="url(#SvgjsLinearGradient1004)" stroke-linecap="round" class="TopRight"></path><path d="M216 390L599 7" stroke-width="10" stroke="url(#SvgjsLinearGradient1004)" stroke-linecap="round" class="TopRight"></path><path d="M961 506L1119 348" stroke-width="8" stroke="url(#SvgjsLinearGradient1005)" stroke-linecap="round" class="BottomLeft"></path><path d="M627 146L304 469" stroke-width="6" stroke="url(#SvgjsLinearGradient1004)" stroke-linecap="round" class="TopRight"></path><path d="M1323 119L1167 275" stroke-width="10" stroke="url(#SvgjsLinearGradient1004)" stroke-linecap="round" class="TopRight"></path><path d="M13 189L-346 548" stroke-width="8" stroke="url(#SvgjsLinearGradient1005)" stroke-linecap="round" class="BottomLeft"></path><path d="M1345 204L1729 -180" stroke-width="6" stroke="url(#SvgjsLinearGradient1004)" stroke-linecap="round" class="TopRight"></path><path d="M738 408L1069 77" stroke-width="8" stroke="url(#SvgjsLinearGradient1004)" stroke-linecap="round" class="TopRight"></path><path d="M983 350L838 495" stroke-width="8" stroke="url(#SvgjsLinearGradient1004)" stroke-linecap="round" class="TopRight"></path><path d="M790 444L383 851" stroke-width="8" stroke="url(#SvgjsLinearGradient1004)" stroke-linecap="round" class="TopRight"></path><path d="M1189 102L1552 -261" stroke-width="6" stroke="url(#SvgjsLinearGradient1004)" stroke-linecap="round" class="TopRight"></path><path d="M401 131L178 354" stroke-width="8" stroke="url(#SvgjsLinearGradient1004)" stroke-linecap="round" class="TopRight"></path><path d="M835 349L553 631" stroke-width="8" stroke="url(#SvgjsLinearGradient1004)" stroke-linecap="round" class="TopRight"></path><path d="M1024 460L882 602" stroke-width="8" stroke="url(#SvgjsLinearGradient1005)" stroke-linecap="round" class="BottomLeft"></path><path d="M246 295L533 8" stroke-width="6" stroke="url(#SvgjsLinearGradient1005)" stroke-linecap="round" class="BottomLeft"></path><path d="M1242 328L1533 37" stroke-width="10" stroke="url(#SvgjsLinearGradient1005)" stroke-linecap="round" class="BottomLeft"></path><path d="M1138 157L954 341" stroke-width="10" stroke="url(#SvgjsLinearGradient1005)" stroke-linecap="round" class="BottomLeft"></path><path d="M1173 300L1429 44" stroke-width="10" stroke="url(#SvgjsLinearGradient1005)" stroke-linecap="round" class="BottomLeft"></path><path d="M700 114L492 322" stroke-width="8" stroke="url(#SvgjsLinearGradient1005)" stroke-linecap="round" class="BottomLeft"></path><path d="M812 145L1131 -174" stroke-width="10" stroke="url(#SvgjsLinearGradient1004)" stroke-linecap="round" class="TopRight"></path><path d="M905 10L516 399" stroke-width="8" stroke="url(#SvgjsLinearGradient1005)" stroke-linecap="round" class="BottomLeft"></path><path d="M723 285L1048 -40" stroke-width="10" stroke="url(#SvgjsLinearGradient1004)" stroke-linecap="round" class="TopRight"></path><path d="M1297 537L1614 220" stroke-width="8" stroke="url(#SvgjsLinearGradient1005)" stroke-linecap="round" class="BottomLeft"></path><path d="M1003 332L1185 150" stroke-width="8" stroke="url(#SvgjsLinearGradient1005)" stroke-linecap="round" class="BottomLeft"></path><path d="M1393 83L1541 -65" stroke-width="10" stroke="url(#SvgjsLinearGradient1005)" stroke-linecap="round" class="BottomLeft"></path><path d="M318 106L-93 517" stroke-width="8" stroke="url(#SvgjsLinearGradient1005)" stroke-linecap="round" class="BottomLeft"></path><path d="M1174 470L1410 234" stroke-width="8" stroke="url(#SvgjsLinearGradient1005)" stroke-linecap="round" class="BottomLeft"></path><path d="M1438 151L1618 -29" stroke-width="8" stroke="url(#SvgjsLinearGradient1005)" stroke-linecap="round" class="BottomLeft"></path><path d="M932 272L554 650" stroke-width="10" stroke="url(#SvgjsLinearGradient1004)" stroke-linecap="round" class="TopRight"></path><path d="M1162 492L789 865" stroke-width="8" stroke="url(#SvgjsLinearGradient1004)" stroke-linecap="round" class="TopRight"></path><path d="M601 356L956 1" stroke-width="6" stroke="url(#SvgjsLinearGradient1004)" stroke-linecap="round" class="TopRight"></path><path d="M144 72L-193 409" stroke-width="6" stroke="url(#SvgjsLinearGradient1005)" stroke-linecap="round" class="BottomLeft"></path><path d="M1195 471L1576 90" stroke-width="8" stroke="url(#SvgjsLinearGradient1004)" stroke-linecap="round" class="TopRight"></path><path d="M1389 166L1709 -154" stroke-width="10" stroke="url(#SvgjsLinearGradient1004)" stroke-linecap="round" class="TopRight"></path><path d="M1388 85L1720 -247" stroke-width="8" stroke="url(#SvgjsLinearGradient1004)" stroke-linecap="round" class="TopRight"></path><path d="M777 127L950 -46" stroke-width="8" stroke="url(#SvgjsLinearGradient1005)" stroke-linecap="round" class="BottomLeft"></path><path d="M103 546L308 341" stroke-width="6" stroke="url(#SvgjsLinearGradient1005)" stroke-linecap="round" class="BottomLeft"></path><path d="M1431 395L1651 175" stroke-width="6" stroke="url(#SvgjsLinearGradient1005)" stroke-linecap="round" class="BottomLeft"></path><path d="M228 70L393 -95" stroke-width="10" stroke="url(#SvgjsLinearGradient1005)" stroke-linecap="round" class="BottomLeft"></path></g><defs><mask id="SvgjsMask1003"><rect width="1440" height="560" fill="#ffffff"></rect></mask><linearGradient x1="0%" y1="100%" x2="100%" y2="0%" id="SvgjsLinearGradient1004"><stop stop-color="rgba(30, 31, 33, 0)" offset="0"></stop><stop stop-color="rgba(30, 31, 33, 1)" offset="1"></stop></linearGradient><linearGradient x1="100%" y1="0%" x2="0%" y2="100%" id="SvgjsLinearGradient1005"><stop stop-color="rgba(30, 31, 33, 0)" offset="0"></stop><stop stop-color="rgba(30, 31, 33, 1)" offset="1"></stop></linearGradient></defs></svg>